# xmcd
#
# Track frame offsets:
#	150
#	13030
#	28810
#	42635
#	59090
#	72695
#	86240
#	105615
#	122500
#	138425
#	157105
#	172600
#	192590
#	207900
#	225130
#
# Disc length: 3232 seconds
#
# Revision: 1
# Processed by: cddbd v1.5.1PL2 Copyright (c) Steve Scherf et al.
# Submitted via: audiograbber 1.83.01
#
DISCID=d70c9e0f
DTITLE=Music Maestro - MM6121
DYEAR=1900
DGENRE=Karaoke
TTITLE0=Hill, Faith - Life's Too Short To Love Like That
TTITLE1=McBride and The Ride - Sacred Ground
TTITLE2=Allen, Deborah - Break These Chains
TTITLE3=McGraw, Tim - Not A Moment Too Soon
TTITLE4=Diamond Reo - Norma Jean Riley
TTITLE5=Tillis, Pam - Better Off Blue
TTITLE6=Dean, Billy - Once In A While
TTITLE7=McEntire, Reba - I Won't Stand In Line
TTITLE8=Judds, The - One Hundred And Two
TTITLE9=Strait, George - I'd Like To Have That One Back
TTITLE10=Diamond Reo - Meet In The Middle
TTITLE11=Loveless, Patty - Over My Shoulder
TTITLE12=Morgan, Lorrie - Cryin' Time
TTITLE13=Carter, Carlene - Something Already Gone
TTITLE14=Brother Phelps - Eagle Over Angel
EXTD=As Listed In KJ Pro
EXTT0=
EXTT1=
EXTT2=
EXTT3=
EXTT4=
EXTT5=
EXTT6=
EXTT7=
EXTT8=
EXTT9=
EXTT10=
EXTT11=
EXTT12=
EXTT13=
EXTT14=
PLAYORDER=
